<svg version="1.2" xmlns="http://www.w3.org/2000/svg" viewBox="0 0 108 106" width="108" height="106">
	<title>Communal Icon</title>
	<style>
		.s2 { fill: #8ac926 }
		.s3 { fill: #ffca3a }
		.s4 { fill: #1984c4 }
	</style>
	<g id="icon">
		<path class="s2" d="m46.7 5.6c0-3.1 2.6-5.7 5.7-5.7 3.2 0 5.8 2.6 5.8 5.7 0 3.2-2.6 5.8-5.8 5.8-3.1 0-5.7-2.6-5.7-5.8z"/>
		<path class="s2" d="m39.4 16.6c1.3 1 2.7 2.3 4.1 3.5 1.8 1.5 3.1 4.5 5.3 4.5 1.7-0.1 9.1-9 17.4-8.3 1.1 0.1 2.2 0.3 3.2 0.7-0.5-3.2 1.3-8.1-1.2-10.2-3.7-3-22 3.6-28.8 9.8z"/>
		<path class="s3" d="m82.7 14.7c2.2-2.3 5.9-2.3 8.1 0 2.3 2.2 2.3 5.9 0 8.1-2.2 2.3-5.9 2.3-8.1 0-2.3-2.2-2.3-5.9 0-8.1z"/>
		<path class="s3" d="m69.4 17c0.2 1.6 0.3 3.5 0.4 5.3 0.2 2.4-1 5.4 0.6 7 1.2 1.2 12.8 0.1 18.2 6.5 0.6 0.8 1.2 1.7 1.7 2.6 2-2.5 6.7-4.7 6.4-8-0.5-4.7-18.2-13-27.3-13.4z"/>
		<path class="s2" d="m102.3 46.8c3.1 0 5.7 2.6 5.7 5.7 0 3.2-2.6 5.8-5.7 5.8-3.2 0-5.8-2.6-5.8-5.8 0-3.1 2.6-5.7 5.8-5.7z"/>
		<path class="s2" d="m90.3 38.5c-1 1.3-2.3 2.7-3.5 4-1.5 1.9-4.5 3.2-4.4 5.4 0 1.7 8.9 9.1 8.2 17.4-0.1 1.1-0.3 2.2-0.7 3.2 3.2-0.5 8.1 1.3 10.2-1.2 3-3.7-3.6-22-9.8-28.8z"/>
		<path class="s4" d="m92.5 81.4c2.2 2.2 2.2 5.9 0 8.1-2.2 2.3-5.9 2.3-8.1 0-2.3-2.2-2.3-5.9 0-8.1 2.2-2.3 5.9-2.3 8.1 0z"/>
		<path class="s4" d="m89.9 68.5c-1.6 0.2-3.5 0.3-5.3 0.4-2.4 0.2-5.4-1-7 0.6-1.2 1.2-0.1 12.8-6.4 18.2-0.9 0.6-1.8 1.2-2.7 1.7 2.5 2 4.7 6.7 8 6.4 4.7-0.5 13-18.2 13.4-27.3z"/>
		<path class="s2" d="m61.1 100.4c0 3.1-2.6 5.7-5.7 5.7-3.2 0-5.8-2.6-5.8-5.7 0-3.2 2.6-5.8 5.8-5.8 3.1 0 5.7 2.6 5.7 5.8z"/>
		<path class="s2" d="m68.5 89.4c-1.4-1-2.8-2.3-4.1-3.5-1.9-1.5-3.2-4.5-5.4-4.5-1.7 0.1-9.1 9-17.4 8.3-1.1-0.1-2.2-0.3-3.2-0.7 0.5 3.2-1.3 8.1 1.2 10.2 3.7 3 22-3.6 28.9-9.8z"/>
		<path class="s3" d="m25.5 91.6c-2.2 2.2-5.9 2.2-8.1 0-2.3-2.2-2.3-5.9 0-8.1 2.2-2.3 5.9-2.3 8.1 0 2.3 2.2 2.3 5.9 0 8.1z"/>
		<path class="s3" d="m38.4 90c-0.2-1.6-0.3-3.5-0.4-5.3-0.2-2.4 1-5.4-0.6-7-1.2-1.2-12.8-0.1-18.2-6.5-0.6-0.8-1.2-1.7-1.7-2.7-2 2.6-6.7 4.8-6.4 8.1 0.5 4.7 18.2 13 27.3 13.4z"/>
		<path class="s2" d="m6.5 60.2c-3.1 0-5.7-2.6-5.7-5.7 0-3.2 2.6-5.8 5.7-5.8 3.2 0 5.8 2.6 5.8 5.8 0 3.1-2.6 5.7-5.8 5.7z"/>
		<path class="s2" d="m17.5 67.5c1-1.3 2.3-2.7 3.5-4 1.5-1.9 4.5-3.2 4.5-5.4-0.1-1.7-9-9.1-8.3-17.4 0.1-1.1 0.3-2.2 0.7-3.2-3.2 0.5-8.1-1.3-10.2 1.2-3 3.7 3.6 22 9.8 28.8z"/>
		<path class="s4" d="m15.3 24.6c-2.2-2.2-2.2-5.9 0-8.1 2.2-2.3 5.9-2.3 8.1 0 2.3 2.2 2.3 5.9 0 8.1-2.2 2.3-5.9 2.3-8.1 0z"/>
		<path class="s4" d="m17.9 37.5c1.7-0.2 3.5-0.3 5.3-0.4 2.4-0.2 5.4 1 7-0.6 1.2-1.2 0.1-12.8 6.5-18.2 0.8-0.6 1.7-1.2 2.7-1.7-2.6-2-4.8-6.7-8.1-6.4-4.7 0.5-13 18.2-13.4 27.3z"/>
	</g>
</svg>
