<svg version="1.2" xmlns="http://www.w3.org/2000/svg" viewBox="0 0 620 106" width="620" height="106">
	<title>communal_logo_final-ai(1)</title>
	<style>
		.s0 { fill: #333333 } 
		.s1 { fill: #2a3691 } 
		.s2 { fill: #8ac926 } 
		.s3 { fill: #ffca3a } 
		.s4 { fill: #1984c4 } 
	</style>
	<g id="Layer 1">
		<g id="&lt;Group&gt;">
			<g id="&lt;Group&gt;">
				<path id="path12505" class="s0" d="m150.6 80.9c-15.7 0-28.4-12.4-28.4-27.9 0-15.6 12.3-27.8 28.1-27.8 12.1 0 22.6 6.8 26.7 19h-14.4c-2.5-4.9-6.6-7.3-12.3-7.3-8.9 0-15.2 6.7-15.2 16 0 9.3 6.6 16.2 15.4 16.2 5.3 0 9-2.1 12.1-7h14.4c-4.4 11.9-14 18.8-26.4 18.8z"/>
				<path id="path12509" fill-rule="evenodd" class="s1" d="m211.9 79.9c-15.6 0-28.2-12.5-28.2-27.9 0-15.2 12.6-27.8 28.1-27.8 16 0 28.4 12.4 28.4 28.2 0 15-12.9 27.5-28.3 27.5zm0-44c-8.4 0-15.4 7.2-15.4 15.9 0 9.1 6.8 16.3 15.5 16.3 8.4 0 15.3-7.2 15.3-16.1 0-8.8-6.9-16.1-15.4-16.1z"/>
				<path id="path12517" fill-rule="evenodd" class="s0" d="m211.9 80.9c-15.6 0-28.2-12.5-28.2-27.9 0-15.2 12.6-27.8 28.1-27.8 16 0 28.4 12.4 28.4 28.2 0 15-12.9 27.5-28.3 27.5zm0-44c-8.4 0-15.4 7.2-15.4 15.9 0 9.1 6.8 16.3 15.5 16.3 8.4 0 15.3-7.2 15.3-16.1 0-8.8-6.9-16.1-15.4-16.1z"/>
				<path id="path12525" class="s0" d="m314.4 78.6v-29.2c0-10.6-4-13.5-10-13.5-7.1 0-10.7 3.8-10.7 16.5v26.2h-12.8v-29.2c0-10.4-3.6-13.5-10.4-13.5-7.3 0-10.3 3.9-10.3 16.5v26.2h-12.8v-53.2h11.7v5c3.8-4.5 7.6-6.2 13.8-6.2 7.3 0 12 2.5 15.7 8.2 4.3-5.7 9.6-8.2 17.1-8.2 14 0 21.5 7.8 21.5 23.7v30.7z"/>
				<path id="path12533" class="s0" d="m404.7 78.6v-29.2c0-10.6-4.1-13.5-10-13.5-7.1 0-10.8 3.8-10.8 16.5v26.2h-12.7v-29.2c0-10.4-3.7-13.5-10.4-13.5-7.4 0-10.4 3.9-10.4 16.5v26.2h-12.8v-53.2h11.8v5c3.7-4.5 7.5-6.2 13.8-6.2 7.3 0 12 2.5 15.6 8.2 4.4-5.7 9.6-8.2 17.1-8.2 14 0 21.5 7.8 21.5 23.7v30.7z"/>
				<path id="path12541" class="s0" d="m463.4 78.6v-5.1c-4.8 4.7-8.8 6.4-15.3 6.4-12.3 0-20.2-7.2-20.2-26v-28.5h12.8v26c0 14.2 3.9 16.7 10 16.7 4.4 0 7.8-1.8 9.7-4.9 1.5-2.4 2-5.6 2-12.7v-25.1h12.8v53.2z"/>
				<path id="path12549" class="s0" d="m520 78.6v-26c0-14.2-3.9-16.7-10.2-16.7-4.1 0-7.4 1.7-9.4 4.9-1.7 2.6-2.1 5.6-2.1 12.8v25h-12.8v-53.2h11.8v5.1c4.7-4.5 8.9-6.3 15-6.3 7.4 0 13.1 2.7 16.6 7.7 2.9 4.1 3.8 8.7 3.8 18.2v28.5z"/>
				<path id="path12553" fill-rule="evenodd" class="s1" d="m585.2 78.6v-6.9c-5.1 5.8-10.1 8.2-17.6 8.2-15.6 0-26.8-11.7-26.8-27.7 0-16.2 11.3-28 27.1-28 7.6 0 12.9 2.5 17.3 8.3v-7.1h11.7v53.2zm-16-42.7c-9.1 0-15.5 6.9-15.5 16.6 0 9.3 6.4 15.6 15.7 15.6 9.7 0 15.5-6.9 15.5-15.7 0-9.7-6.6-16.5-15.7-16.5z"/>
				<path id="path12557" fill-rule="evenodd" class="s0" d="m585.2 78.6v-6.9c-5.1 5.8-10.1 8.2-17.6 8.2-15.6 0-26.8-11.7-26.8-27.7 0-16.2 11.3-28 27.1-28 7.6 0 12.9 2.5 17.3 8.3v-7.1h11.7v53.2zm-16-42.7c-9.1 0-15.5 6.9-15.5 16.6 0 9.3 6.4 15.6 15.7 15.6 9.7 0 15.5-6.9 15.5-15.7 0-9.7-6.6-16.5-15.7-16.5z"/>
				<path id="path12559" class="s0" d="m606.4 7.7h12.8v70.9h-12.8z"/>
			</g>
			<g id="&lt;Group&gt;">
				<path id="path13290" class="s2" d="m46.7 5.6c0-3.1 2.6-5.7 5.7-5.7 3.2 0 5.8 2.6 5.8 5.7 0 3.2-2.6 5.8-5.8 5.8-3.1 0-5.7-2.6-5.7-5.8z"/>
				<path id="path12591-8-0" class="s2" d="m39.4 16.6c1.3 1 2.7 2.3 4.1 3.5 1.8 1.5 3.1 4.5 5.3 4.5 1.7-0.1 9.1-9 17.4-8.3 1.1 0.1 2.2 0.3 3.2 0.7-0.5-3.2 1.3-8.1-1.2-10.2-3.7-3-22 3.6-28.8 9.8z"/>
				<path id="path13290-0" class="s3" d="m82.7 14.7c2.2-2.3 5.9-2.3 8.1 0 2.3 2.2 2.3 5.9 0 8.1-2.2 2.3-5.9 2.3-8.1 0-2.3-2.2-2.3-5.9 0-8.1z"/>
				<path id="path12591-8-0-4" class="s3" d="m69.4 17c0.2 1.6 0.3 3.5 0.4 5.3 0.2 2.4-1 5.4 0.6 7 1.2 1.2 12.8 0.1 18.2 6.5 0.6 0.8 1.2 1.7 1.7 2.6 2-2.5 6.7-4.7 6.4-8-0.5-4.7-18.2-13-27.3-13.4z"/>
				<path id="path13290-0-2" class="s2" d="m102.3 46.8c3.1 0 5.7 2.6 5.7 5.7 0 3.2-2.6 5.8-5.7 5.8-3.2 0-5.8-2.6-5.8-5.8 0-3.1 2.6-5.7 5.8-5.7z"/>
				<path id="path12591-8-0-4-2" class="s2" d="m90.3 38.5c-1 1.3-2.3 2.7-3.5 4-1.5 1.9-4.5 3.2-4.4 5.4 0 1.7 8.9 9.1 8.2 17.4-0.1 1.1-0.3 2.2-0.7 3.2 3.2-0.5 8.1 1.3 10.2-1.2 3-3.7-3.6-22-9.8-28.8z"/>
				<path id="path13290-0-2-9" class="s4" d="m92.5 81.4c2.2 2.2 2.2 5.9 0 8.1-2.2 2.3-5.9 2.3-8.1 0-2.3-2.2-2.3-5.9 0-8.1 2.2-2.3 5.9-2.3 8.1 0z"/>
				<path id="path12591-8-0-4-2-9" class="s4" d="m89.9 68.5c-1.6 0.2-3.5 0.3-5.3 0.4-2.4 0.2-5.4-1-7 0.6-1.2 1.2-0.1 12.8-6.4 18.2-0.9 0.6-1.8 1.2-2.7 1.7 2.5 2 4.7 6.7 8 6.4 4.7-0.5 13-18.2 13.4-27.3z"/>
				<path id="path13290-0-2-9-9" class="s2" d="m61.1 100.4c0 3.1-2.6 5.7-5.7 5.7-3.2 0-5.8-2.6-5.8-5.7 0-3.2 2.6-5.8 5.8-5.8 3.1 0 5.7 2.6 5.7 5.8z"/>
				<path id="path12591-8-0-4-2-9-2" class="s2" d="m68.5 89.4c-1.4-1-2.8-2.3-4.1-3.5-1.9-1.5-3.2-4.5-5.4-4.5-1.7 0.1-9.1 9-17.4 8.3-1.1-0.1-2.2-0.3-3.2-0.7 0.5 3.2-1.3 8.1 1.2 10.2 3.7 3 22-3.6 28.9-9.8z"/>
				<path id="path13290-0-2-9-9-5" class="s3" d="m25.5 91.6c-2.2 2.2-5.9 2.2-8.1 0-2.3-2.2-2.3-5.9 0-8.1 2.2-2.3 5.9-2.3 8.1 0 2.3 2.2 2.3 5.9 0 8.1z"/>
				<path id="path12591-8-0-4-2-9-2-2" class="s3" d="m38.4 90c-0.2-1.6-0.3-3.5-0.4-5.3-0.2-2.4 1-5.4-0.6-7-1.2-1.2-12.8-0.1-18.2-6.5-0.6-0.8-1.2-1.7-1.7-2.7-2 2.6-6.7 4.8-6.4 8.1 0.5 4.7 18.2 13 27.3 13.4z"/>
				<path id="path13290-0-2-9-9-5-0" class="s2" d="m6.5 60.2c-3.1 0-5.7-2.6-5.7-5.7 0-3.2 2.6-5.8 5.7-5.8 3.2 0 5.8 2.6 5.8 5.8 0 3.1-2.6 5.7-5.8 5.7z"/>
				<path id="path12591-8-0-4-2-9-2-2-9" class="s2" d="m17.5 67.5c1-1.3 2.3-2.7 3.5-4 1.5-1.9 4.5-3.2 4.5-5.4-0.1-1.7-9-9.1-8.3-17.4 0.1-1.1 0.3-2.2 0.7-3.2-3.2 0.5-8.1-1.3-10.2 1.2-3 3.7 3.6 22 9.8 28.8z"/>
				<path id="path13290-0-2-9-9-5-0-1" class="s4" d="m15.3 24.6c-2.2-2.2-2.2-5.9 0-8.1 2.2-2.3 5.9-2.3 8.1 0 2.3 2.2 2.3 5.9 0 8.1-2.2 2.3-5.9 2.3-8.1 0z"/>
				<path id="path12591-8-0-4-2-9-2-2-9-5" class="s4" d="m17.9 37.5c1.7-0.2 3.5-0.3 5.3-0.4 2.4-0.2 5.4 1 7-0.6 1.2-1.2 0.1-12.8 6.5-18.2 0.8-0.6 1.7-1.2 2.7-1.7-2.6-2-4.8-6.7-8.1-6.4-4.7 0.5-13 18.2-13.4 27.3z"/>
			</g>
		</g>
	</g>
</svg>